# xmcd
#
# Track frame offsets:
#	150
#	18961
#	34191
#	53647
#	65384
#	79243
#	93429
#	107615
#	122034
#	135349
#
# Disc length: 2004 seconds
#
# Revision: 0
# Processed by: cddbd v1.5.2PL0 Copyright (c) Steve Scherf et al.
# Submitted via: EasyCDDAExtractor 15.1.0.1
#
DISCID=7707d20a
DTITLE=เปาวลี พรพิมล - เพลงประกอบภาพยนตร์ พุ่มพวง
DYEAR=2011
DGENRE=Country
TTITLE0=นักร้องบ้านนอก
TTITLE1=โลกของผึ้ง
TTITLE2=แก้วรอพี่
TTITLE3=ตั๊กแตนผูกโบว์
TTITLE4=หนูไม่รู้
TTITLE5=ผู้ชายในฝัน
TTITLE6=ดาวเรืองดาวโรย
TTITLE7=สาวนาสั่งแฟน
TTITLE8=กระแซะเข้ามาซิ
TTITLE9=ห่างหน่อยถอยนิด
EXTD=
EXTT0=
EXTT1=
EXTT2=
EXTT3=
EXTT4=
EXTT5=
EXTT6=
EXTT7=
EXTT8=
EXTT9=
PLAYORDER=
